<?xml version="1.0" encoding="UTF-8"?>
<svg id="Layer_2" data-name="Layer 2" xmlns="http://www.w3.org/2000/svg" viewBox="0 0 238.95 176.24">
  <defs>
    <style>
      .cls-1 {
        fill: #ff1d25;
      }
    </style>
  </defs>
  <g id="Layer_1-2" data-name="Layer 1-2">
    <path class="cls-1" d="M206.02,0l-42.34,70.66c3.14-1.37,6.7-2.4,10.69-3.08,3.99-.68,7.84-1.03,11.55-1.03,16.25,1.1,29.16,6.98,38.71,17.66,9.54,10.69,14.32,23.01,14.32,36.98,0,15.85-5.43,28.99-16.29,39.41-10.86,10.43-24.55,15.64-41.06,15.64s-29.48-5.23-40.6-15.68c-11.12-10.46-16.68-23.63-16.68-39.52,0-5.37.64-10.32,1.92-14.84s3.21-8.83,5.77-12.94L188.47,0h17.55ZM81.27,0l-41.92,70.66c3.14-1.37,6.7-2.4,10.69-3.08s7.84-1.03,11.55-1.03c16.25,1.1,29.16,6.98,38.71,17.66,9.55,10.68,14.33,23.01,14.33,36.97,0,16.12-5.43,29.33-16.29,39.62-10.86,10.29-24.55,15.43-41.06,15.43s-29.48-5.23-40.6-15.68C5.56,150.09,0,136.92,0,121.03c0-5.37.64-10.32,1.92-14.84,1.28-4.52,3.21-8.83,5.77-12.94L63.72,0h17.55Z"/>
  </g>
</svg>