<?xml version="1.0" encoding="UTF-8"?>
<svg id="Layer_2" data-name="Layer 2" xmlns="http://www.w3.org/2000/svg" viewBox="0 0 238.95 176.24">
  <defs>
    <style>
      .cls-1 {
        fill: #ff1d25;
      }
    </style>
  </defs>
  <g id="Layer_1-2" data-name="Layer 1-2">
    <path class="cls-1" d="M32.93,176.24l42.34-70.66c-3.14,1.37-6.7,2.4-10.69,3.08-3.99.68-7.84,1.03-11.55,1.03-16.25-1.1-29.16-6.98-38.71-17.66C4.78,81.34,0,69.02,0,55.05c0-15.85,5.43-28.99,16.29-39.41C27.15,5.21,40.84,0,57.35,0s29.48,5.23,40.6,15.68c11.12,10.46,16.68,23.63,16.68,39.52,0,5.37-.64,10.32-1.92,14.84s-3.21,8.83-5.77,12.94l-56.46,93.25h-17.55ZM157.68,176.24l41.92-70.66c-3.14,1.37-6.7,2.4-10.69,3.08s-7.84,1.03-11.55,1.03c-16.25-1.1-29.16-6.98-38.71-17.66-9.55-10.68-14.33-23.01-14.33-36.97,0-16.12,5.43-29.33,16.29-39.62C151.47,5.15,165.16,0,181.67,0s29.48,5.23,40.6,15.68c11.12,10.46,16.68,23.63,16.68,39.52,0,5.37-.64,10.32-1.92,14.84-1.28,4.52-3.21,8.83-5.77,12.94l-56.03,93.25h-17.55Z"/>
  </g>
</svg>