<?xml version="1.0" encoding="UTF-8"?>
<svg id="Layer_2" data-name="Layer 2" xmlns="http://www.w3.org/2000/svg" viewBox="0 0 720 322.14">
  <defs>
    <style>
      .cls-1 {
        fill: #fff;
      }
    </style>
  </defs>
  <g id="Layer_1-2" data-name="Layer 1">
    <g>
      <path class="cls-1" d="M709.71,34.94l-.6-3.32-3.32-.58C473.81-10.35,243.4-10.35,20.97,31.04l-3.05.56-.78,3.01c-22.87,89.24-22.87,176.91.04,260.53l.83,3.08,3.14.45c108.72,15.65,220.63,23.47,334.97,23.47s231.09-7.82,349.44-23.47l3.67-.48.5-3.65c13.67-99.15,13.67-184.07-.04-259.6ZM673.56,195.41c-1.55,7.33-6.77,17.77-11.56,23.84-13.27-.91-31.03-7.2-37.59-18.97-5.94,9.87-15.38,17.15-25.47,17.15,0-.02-.02-.02-.02-.04v.04c-11.56,0-21.78-3.05-24.83-12.84l-3.08,12.84c-16.29-.64-30.47-3.18-35.48-12.14l-2.54,11.08c-2.11.35-5.16.56-8.53.56-11.5,0-26.46-2.89-31.54-13.67l-3.88,10.01c-13.25,5.78-91.8,18.25-136.05.12v.02c-9.1-4.09-23.41-14.1-25.18-38.21l-4.66-51.92,12.9-23.97h3.67v61.78c0,13.03,6.96,20.85,15.25,24.65,48.34,18.6,126.04,7.12,133.8,2.93,5.22-5.08,7.12-10.86,10.92-20.31l3.96-.08-2.75,14.82c8.53,5.78,26.11,7.2,31.54,2.25,2.95-4.58,4.5-9.52,6.69-17.98l3.88-.08-1.9,15.25c5.78,6.34,22.42,7.97,30.1,7.89l-2.25-18.41,9.02-11.5h1.36l-.5,24.56c2.68,3.03,10.59,5.62,20.09,5.62v.04s.02-.02.02-.04c10.94,0,17.57-3.72,24.9-16.14l.43-.08,1.18,1.12c7.91-13.33,18.97-25.66,33.09-22.64,13.54,2.97,18.68,23.97,15.01,42.46ZM210.66,190.75h3.8c.5-17.84,7.55-44.44,26.81-44.44,17.71,0,36.33,17.36,72.79,19.4l.97,1.71-5.92,20.02c-11.08-2.75-24.13,3.53-37.8,10.8-17.63,9.1-36.95,20.37-60.65,19.24-13.4,0-24.48-3.59-26.24-25.74l-4.66-68.49,14.31-23.97h2.27v74.91c0,12.76,5.28,16.56,14.31,16.56ZM132.83,124.57l-12.63,12.47-6.52-6.56c-3.14-3.16-8.26-3.16-11.41.02l-6.52,6.58-12.55-12.55,12.55-12.63,6.52,6.54c3.12,3.14,8.2,3.16,11.35.04l6.58-6.54,12.63,12.63ZM52.1,179.25c.16-10.44,3.05-19.18,8.4-31.38h2.46c-2.89,7.41-4.29,13.54-4.36,18.78-.64,19.96,19.05,24.67,48.88,24.67,19.32,0,36.74-1.77,52.6-6.83-5.99-7.91-13.54-16.16-18.97-21.59l15.59-21.67h2.19c8.73,17.84,13.33,43.25,4.58,67.79-21.45,7.62-39.7,10.16-58.32,10.16-40.42,0-53.67-15.73-53.05-39.94ZM375.57,135.92l2.33-8.96,172.08-17.83-2.48,9.68-171.58,17.67-.35-.56Z"/>
      <path class="cls-1" d="M652.18,176.79c-8.03-3.24-16.64-3.16-23.33.78,5.92,6.07,18.12,14.61,41.12,18.7-2.68-8.75-9.47-16.23-17.79-19.47Z"/>
      <path class="cls-1" d="M235.76,171.01c-11.42,0-15.36,8.32-16.35,19.61,18.12-.5,34.97-2.83,57.55-9.52-14.66-3.8-28.07-10.09-41.2-10.09Z"/>
    </g>
  </g>
</svg>