<?xml version="1.0" encoding="UTF-8"?>
<svg id="Layer_1" data-name="Layer 1" xmlns="http://www.w3.org/2000/svg" viewBox="0 0 592.74 593.01">
  <defs>
    <style>
      .cls-1 {
        fill: #52b788;
      }
    </style>
  </defs>
  <path class="cls-1" d="M86.51,506.05c-7.18-40.15-6.68-81.51-1.53-121.89-32.01-25.31-62.04-53.68-84.97-87.66,22.84-33.94,52.78-62.63,85.06-87.51-5.11-40.42-5.83-81.82,1.6-121.98.44-.65,12.79-2.47,14.67-2.73,35.42-4.99,72.13-3.62,107.53.91,24.92-32.33,53.69-62.12,87.55-85.19,33.9,23.02,62.43,52.92,87.55,85.09,40.48-4.91,82.05-6,122.21,1.91,1.41,9.31,3.07,18.64,3.96,28.02,2.99,31.32,1.2,62.83-2.27,93.99,32.06,25.17,61.95,53.68,84.9,87.56-22.97,33.91-52.98,62.21-84.89,87.58l3.22,36.11c.05,2.2-.12,4.42-.04,6.62.56,14.92.71,29.72-.45,44.66-.32,4.1-3.54,33.26-4.92,34.59-6.38,1.31-12.89,2.42-19.35,3.22-34.02,4.17-68.39,2.59-102.35-1.26-8.15,9.42-15.7,19.37-24.07,28.6-19.04,20.99-40.24,40.1-63.48,56.32-33.94-22.88-62.42-52.83-87.54-84.94l-36.58,3.23c-2.2.05-4.42-.12-6.62-.04-23.03.87-45.73.2-68.56-3.35-3.54-.55-7.08-1.2-10.59-1.87ZM353.53,153.35l-56.13,58.76-60.02-59.7v84.19h-82.29l58.74,59.09-57.8,58.49h81.35v82.78l59.48-59.26,56.66,59.73v-82.55l.71-.71h83.94l-59.21-58.02,59.21-59.56h-83.94l-.71-.71v-82.55Z"/>
</svg>