<?xml version="1.0" encoding="UTF-8"?>
<svg id="Layer_2" data-name="Layer 2" xmlns="http://www.w3.org/2000/svg" viewBox="0 0 1826.85 799.99">
  <defs>
    <style>
      .cls-1 {
        fill: #fff;
      }
    </style>
  </defs>
  <g id="Layer_1-2" data-name="Layer 1-2">
    <path class="cls-1" d="M1821.88,390.97c-27.68-38.46-64.89-75.63-110.65-110.54,7.06-57.13,6.55-109.72-1.56-156.39l-1.46-8.4-8.41-1.37c-46.76-7.61-99.34-7.56-156.38.1-35.43-45.41-72.99-82.23-111.72-109.48l-6.96-4.89-6.91,4.97c-38.46,27.67-75.62,64.88-110.55,110.66-57.13-7.06-109.72-6.55-156.39,1.56l-8.39,1.46-1.37,8.41c-7.61,46.74-7.56,99.33.1,156.38-45.42,35.43-82.23,72.98-109.48,111.72l-4.9,6.96,4.97,6.91c27.67,38.45,64.88,75.62,110.66,110.55-7.05,57.13-6.54,109.72,1.58,156.38l1.46,8.38,8.4,1.37c23.29,3.8,48.03,5.7,74.06,5.7s53.7-1.95,82.31-5.79c35.41,45.4,72.97,82.21,111.72,109.48l6.96,4.89,6.91-4.97c38.47-27.68,75.64-64.88,110.55-110.64,26.56,3.28,52.14,4.94,76.59,4.94,28.15,0,54.82-2.18,79.79-6.52l8.39-1.46,1.37-8.4c7.62-46.73,7.58-99.32-.08-156.38,45.37-35.39,82.18-72.95,109.46-111.71l4.9-6.97-4.97-6.91h0ZM1504.42,479.13v113.05l-76.68-81.61-80.51,80.51v-111.94h-110.36l78.93-78.93-80.52-80.52h111.95v-113.54l81.17,81.18,76.02-80.6v112.96h114.86l-81.18,81.19,81.18,78.26h-114.86Z"/>
    <g>
      <path class="cls-1" d="M234.04,225.25h-3.41l-24.25,33.69c8.45,8.45,20.19,21.29,29.52,33.59-24.69,7.91-119.64,10.63-149.72,10.63-34.72,0-77.04-7.34-76.04-38.4.1-8.12,2.3-17.68,6.8-29.19h-3.84C4.75,254.56.25,268.17.03,284.41c-.99,37.64,21.33,65.2,93.82,65.2,28.98,0,113.96-7.04,147.32-18.9,13.61-38.19,6.48-77.7-7.13-105.47h0Z"/>
      <path class="cls-1" d="M292.24,159.94h-3.62l-19,29.52c1.87,1.98,3.08,5.72,3.31,9.77,1.52,26.23,6.04,109.42,6.04,144.65h3.62l19.42-44.55.78-81.77,10.3,9.44,1.21-.78-22.05-66.29h-.01Z"/>
      <path class="cls-1" d="M345.16,331.81c3.49,2.81,7.56,5.03,12.11,6.63-4.61-2.05-8.68-4.25-12.11-6.63Z"/>
      <path class="cls-1" d="M758.84,238.32c-23.15,0-53.55,21.4-79.45,64.85-4.61-1.42-7.24-2.73-9.89-4.71l.78-28.64h-5.71l-8.24,35.23c-63.19,17.91-165.47,15.66-239.63,5.84-2.41-.33-4.8-.65-7.14-.99-.1-45.35-25.93-67.51-41.69-67.51-18.14,0-33.29,21.67-36.62,47.78-.22,1.69-.38,3.41-.5,5.13-1.04,15.98,4.4,28.58,14.41,36.53,3.42,2.38,7.49,4.58,12.11,6.63.05,0,.08.03.13.05,6.63,2.91,14.39,5.49,23.04,7.76-19.47,14.06-48.85,26.96-76.01,27.17v3.29l50.59,25.02c24.74-5.18,40.04-27.62,47.76-50.64,76.06,13.56,193.09,9.31,242.26-4.9,2.73-.66,5.47-1.54,8.34-2.53l2.3-.88,2.08-8.67c1.98,3.18,4.61,5.59,7.91,7.57l-4.17,8.78,1.87,2.73,7.13-9.54c6.48,2.63,13.83,4.5,21.85,5.82,36.32,6.04,81.65-1.21,105.02-13.94,17.35-47.42-.55-97.23-38.52-97.23h0ZM334.66,291.86c3.97-9.34,12.39-13.93,21.57-13.93,13.73,0,28.53,12.95,35.56,29.18-26.61-4.48-45.75-9.61-57.13-15.25ZM688.27,305.04c20.19-17.99,47.96-26.99,65.86-26.99s32.15,9.87,41.48,18.44c-12.95,6.47-64.86,17.33-107.34,8.55Z"/>
      <path class="cls-1" d="M863.56,124.83c-15.58,4.71-39.51,4.71-47.3-2.3,8.9-8.78,29.97-11.1,38.09-6.7l.76-.66c.45-16.46-10.63-20.86-19.32-19.86-11.96,1.42-22.28,13.83-21.07,29.41.55,7.03,4.5,12.4,9.23,15.36-4.61,2.65-9.11,8.68-9.33,15.36l.43.78c5.49-4.71,30.51-9.54,44.12-12.29l4.93-18.44-.55-.66h.01Z"/>
      <path class="cls-1" d="M841.07,159.94h-3.62l-18.99,29.52c1.87,1.98,3.08,5.72,3.29,9.77,1.54,26.23,6.04,109.42,6.04,144.65h3.62l19.42-44.55.78-81.77,10.32,9.44,1.21-.78-22.06-66.29h-.01Z"/>
      <g>
        <path class="cls-1" d="M115.59,587.63h.1c12.07,0,30.78-1.01,52.13-11.41,12.73-38.07,4.5-82.74-9.11-109.96h-3.39l-23.39,38.19c10.32,10.1,21.63,25.02,29.52,35.13-15.96,5.47-34.25,6.47-45.76,6.47h-.1c-20.67-.02-29.65-7.51-29.65-33.36v-58.28h-4.38l-21.19,15.6.99,7.23C36.12,487.13,0,509.52,0,542c0,29.85,40.95,30.07,64.22,21.73l5.47-15.7c3.52,30.79,21.35,39.59,45.89,39.61h0ZM10.65,522.34c12.19-9,37.1-16.46,54-20.19l3.19,24.81c-18.11,6.8-46.99,3.95-57.19-4.61h0Z"/>
        <path class="cls-1" d="M472.87,470.54l.43.76c5.49-4.71,30.51-9.54,44.13-12.29l4.94-18.44-.56-.66c-15.58,4.73-39.51,4.73-47.3-2.3,8.9-8.78,29.97-11.08,38.09-6.7l.76-.65c.45-16.47-10.63-20.85-19.32-19.88-11.96,1.44-22.28,13.83-21.07,29.42.55,7.01,4.5,12.4,9.23,15.36-4.61,2.63-9.11,8.67-9.33,15.36v.02Z"/>
        <path class="cls-1" d="M540.55,469.33l-23.39,38.07c8.02,6.93,20.19,21.73,28.43,32.38-54.26,12.69-213.58,23.15-264.78,4.3-9.66-4.04-16.79-9.84-23.75-31.52l-7.36-20.74h-3.95l-21.4,35.56c8.67,14.06,17.12,28.43,25.35,39.41-16.03,22.92-41.81,33.57-82.86,41.36v3.52l42.02,26.23c31.72-6.48,45.66-36.43,47.75-65.2,4.68,4.8,10.77,9.58,19.76,13.83.07.05.15.08.22.12v-.02c55.34,26.74,234.91,6.47,276.46-9.21,12.73-38.19,5.06-79.9-9.1-108.1h-3.41,0Z"/>
        <path class="cls-1" d="M608.49,543.08l.78-81.77,10.32,9.44,1.21-.76-22.06-66.3h-3.62l-18.99,29.52c1.87,1.98,3.08,5.72,3.29,9.77,1.54,26.23,6.04,109.42,6.04,144.65h3.62l19.42-44.55h-.01Z"/>
        <path class="cls-1" d="M637.79,448.3l19.03-19.03,19.28,19.28c-2.48,5.01-10.61,14.45-18.86,20.17-.02.02-.05.04-.08.05-.06-.04-.12-.08-.19-.12-8.33-5.67-16.63-15.25-19.18-20.35h0Z"/>
        <g>
          <path class="cls-1" d="M49.72,420.53l19.03-19.03,19.28,19.28c-2.48,5.01-10.61,14.45-18.86,20.17-.02.02-.05.04-.08.05-.06-.04-.12-.08-.19-.12-8.33-5.67-16.63-15.25-19.18-20.35Z"/>
          <path class="cls-1" d="M8.79,420.47l19.03-19.03,19.28,19.28c-2.48,5.01-10.61,14.45-18.86,20.17-.02.02-.05.04-.08.05-.06-.04-.12-.08-.19-.12-8.33-5.67-16.63-15.25-19.18-20.35Z"/>
        </g>
        <path class="cls-1" d="M865.31,511.02c-72.98-3.84-98.44-47.07-146.07-25.34l-10.77,34.23,1.65,2.41c13.71-1.87,33.26-.55,49.5,3.51l.43-1.31c-1.75-2.53-4.17-4.95-7.03-7.03,17.46,2.41,35.34,10.2,53.35,14.92-37,8.45-64.86,13.4-101.74,13.61-14.6,0-22.51-3.39-31.18-26.45l-11.63-29.52h-3.52l-20.86,38.52c13.83,18.01,19.22,27.22,32.6,42.14-15.79,21.63-42.36,32.27-81.77,39.41v3.62l43.69,26.23c30.61-6.25,44.77-32.93,47.4-60.7,7.03,5.59,17.13,8.34,25.25,8.34,40.83,0,64.53-14.7,95.05-30.28,24.15-12.29,39.61-12.85,52.25-10.2l14.92-33.14-1.54-2.98h.02Z"/>
        <path class="cls-1" d="M781.14,598.33l19.03-19.03,19.28,19.28c-2.48,5.01-10.61,14.45-18.86,20.17-.02.02-.05.04-.08.05-.06-.04-.12-.08-.19-.12-8.33-5.67-16.63-15.25-19.18-20.35h0Z"/>
        <g>
          <path class="cls-1" d="M121.62,618.6l19.03-19.03,19.28,19.28c-2.48,5.01-10.61,14.45-18.86,20.17-.02.02-.05.04-.08.05-.06-.04-.12-.08-.19-.12-8.33-5.67-16.63-15.25-19.18-20.35Z"/>
          <path class="cls-1" d="M80.68,618.55l19.03-19.03,19.28,19.28c-2.48,5.01-10.61,14.45-18.86,20.17-.02.02-.05.04-.08.05-.06-.04-.12-.08-.19-.12-8.33-5.67-16.63-15.25-19.18-20.35Z"/>
        </g>
      </g>
      <g>
        <path class="cls-1" d="M125.94,198.49l19.03-19.03,19.28,19.28c-2.48,5.01-10.61,14.45-18.86,20.17-.02.02-.05.04-.08.05-.06-.04-.12-.08-.19-.12-8.33-5.67-16.63-15.25-19.18-20.35Z"/>
        <path class="cls-1" d="M85,198.44l19.03-19.03,19.28,19.28c-2.48,5.01-10.61,14.45-18.86,20.17-.02.02-.05.04-.08.05-.06-.04-.12-.08-.19-.12-8.33-5.67-16.63-15.25-19.18-20.35Z"/>
      </g>
    </g>
  </g>
</svg>